<svg xmlns="http://www.w3.org/2000/svg" width="24" height="24" viewBox="0 0 24 24" fill="none"><path d="M6.617 2.283c-.583.069-1.098.328-1.552.782-.483.482-.715.968-.787 1.648-.028.256-.037 2.821-.029 7.567.011 6.699.017 7.196.082 7.42a2.856 2.856 0 0 0 1.989 1.97c.243.065.672.07 6.58.07 5.893 0 6.328-.005 6.445-.069.278-.151.445-.486.391-.782-.015-.082-.166-.428-.336-.769-.37-.744-.412-.864-.408-1.175.003-.219.035-.302.376-.982l.372-.743.012-6.56c.007-4.415-.003-6.665-.031-6.88-.054-.414-.195-.695-.501-1-.291-.292-.587-.445-.96-.498-.342-.049-11.224-.047-11.643.001m11.55 1.543c.07.064.073.31.073 6.24v6.174h-5.61c-3.205 0-5.749.017-5.934.038a3.463 3.463 0 0 0-.866.224c-.066.025-.07-.27-.07-5.856 0-5.813.001-5.886.081-6.1.106-.282.415-.596.694-.703.201-.077.328-.079 5.882-.081 5.228-.002 5.682.003 5.75.064M9.805 7.279c-.382.093-.618.496-.526.898.071.31.317.522.653.563.114.014 1.126.019 2.248.013 2.166-.014 2.114-.009 2.334-.208.15-.136.219-.308.219-.545 0-.237-.069-.409-.219-.545-.221-.2-.158-.195-2.434-.202-1.177-.003-2.201.008-2.275.026m7.955 10.496c0 .009-.044.133-.098.277a2.906 2.906 0 0 0 0 1.896c.054.144.098.268.098.277 0 .008-2.472.015-5.493.015-6.263 0-5.716.032-6.11-.357-.548-.539-.53-1.3.042-1.815.363-.326-.12-.301 6.051-.305 3.031-.002 5.51.004 5.51.012" fill="currentColor" fill-rule="evenodd"/></svg>